# xmcd CD database file
#
# Track frame offsets:
#	150
#	23455
#	55890
#	97629
#	127612
#	145690
#	170615
#	202695
#	233105
#	266610
#	275412
#	320692
#
# Disc length: 4461 seconds
#
# Revision: 0
# Processed by: cddbd v1.4PL0 Copyright (c) Steve Scherf et al.
# Submitted via: CDex 1.50beta9
#
DISCID=91116b0c
DTITLE=Otto Donner - Free for all
DYEAR=2000
DGENRE=Jazz
TTITLE0=I thought about you
TTITLE1=Stick 'em up
TTITLE2=och tusen, tusen stråla ock...
TTITLE3=Once upon a summertime
TTITLE4=Kinetique
TTITLE5=Butterflies
TTITLE6=West of Nashville
TTITLE7=Guneij
TTITLE8=Don't explain
TTITLE9=För släkt och vänner
TTITLE10=Niin vähän aikaa
TTITLE11=I'll string along with you
EXTD=YEAR: 2000
EXTT0=
EXTT1=
EXTT2=
EXTT3=
EXTT4=
EXTT5=
EXTT6=
EXTT7=
EXTT8=
EXTT9=
EXTT10=
EXTT11=
PLAYORDER=
